# AST/ASF file generated using VICON BodyLanguage
# -----------------------------------------------
:version 1.10
:name VICON
:units
  mass 1.0
  length 0.45
  angle deg
:documentation
   .ast/.asf automatically generated from VICON data using
   VICON BodyBuilder and BodyLanguage model FoxedUp or BRILLIANT.MOD
:root
   order TX TY TZ RX RY RZ
   axis XYZ
   position 0 0 0  
   orientation 0 0 0 
:bonedata
  begin
     id 1 
     name lhipjoint
     direction 0.612567 -0.751349 0.245431 
     length 2.42285 
     axis 0 0 0  XYZ
  end
  begin
     id 2 
     name lfemur
     direction 0.34202 -0.939693 0  
     length 7.11304  
     axis 0 0 20  XYZ
    dof rx ry rz
    limits (-160.0 20.0)
           (-70.0 70.0)
           (-60.0 70.0)
  end
  begin
     id 3 
     name ltibia
     direction 0.34202 -0.939693 0   
     length 7.84529   
     axis 0 0 20   XYZ
    dof rx
    limits (-10.0 170.0)
  end
  begin
     id 4 
     name lfoot
     direction 0.0779239 -0.214094 0.9737   
     length 1.97176   
     axis -90 7.62852e-016 20   XYZ
    dof rx rz
    limits (-45.0 90.0)
           (-70.0 20.0)
  end
  begin
     id 5 
     name ltoes
     direction 1.53565e-011 -4.21709e-011 1   
     length 0.993197   
     axis -90 7.62852e-016 20   XYZ
    dof rx
    limits (-90.0 20.0)
  end
  begin
     id 6 
     name rhipjoint
     direction -0.665722 -0.709315 0.231701   
     length 2.56642  
     axis 0 0 0  XYZ 
  end
  begin
     id 7 
     name rfemur
     direction -0.34202 -0.939693 0   
     length 7.32108   
     axis 0 0 -20   XYZ
    dof rx ry rz
    limits (-160.0 20.0)
           (-70.0 70.0)
           (-70.0 60.0)
  end
  begin
     id 8 
     name rtibia
     direction -0.34202 -0.939693 0   
     length 7.81254   
     axis 0 0 -20   XYZ
    dof rx
    limits (-10.0 170.0)
 end
 begin
     id 9 
     name rfoot
     direction -0.0832806 -0.228812 0.969902   
     length 2.08278  
     axis -90 -7.62852e-016 -20   XYZ
    dof rx rz
    limits (-45.0 90.0)
           (-20.0 70.0)
  end
  begin
     id 10 
     name rtoes
     direction -1.53589e-011 -4.22086e-011 1   
     length 1.04609   
     axis -90 -7.62852e-016 -20   XYZ
    dof rx
    limits (-90.0 20.0)
  end
  begin
     id 11 
     name lowerback
     direction -0.00506013 0.988403 -0.151766   
     length 2.01978   
     axis 0 0 0   XYZ
    dof rx ry rz
    limits (-20.0 45.0)
           (-30.0 30.0)
           (-30.0 30.0)
  end
  begin
     id 12 
     name upperback
     direction -0.00836389 0.99968 0.0238859   
     length 2.01276   
     axis 0 0 0   XYZ
    dof rx ry rz
    limits (-20.0 45.0)
           (-30.0 30.0)
           (-30.0 30.0)
  end
  begin
     id 13 
     name thorax
     direction -0.00684136 0.995386 0.0957043   
     length 2.07303   
     axis 0 0 0   XYZ
    dof rx ry rz
    limits (-20.0 45.0)
           (-30.0 30.0)
           (-30.0 30.0)
  end
  begin
     id 14 
     name lowerneck
     direction -0.0161045 0.999661 0.0204485   
     length 1.91243   
     axis 0 0 0   XYZ
    dof rx ry rz
    limits (-20.0 45.0)
           (-30.0 30.0)
           (-30.0 30.0)
  end
  begin
     id 15 
     name upperneck
     direction 0.0553583 0.990946 -0.122319   
     length 1.91574   
     axis 0 0 0   XYZ
    dof rx ry rz
    limits (-20.0 45.0)
           (-30.0 30.0)
           (-30.0 30.0)
  end
  begin
     id 16
     name head
     direction 0.0180273 0.998839 -0.0446756  
     length 1.92693  
     axis 0 0 0   XYZ
    dof rx ry rz
    limits (-20.0 45.0)
           (-30.0 30.0)
           (-30.0 30.0)
  end
  begin
     id 17 
     name lclavicle
     direction 0.945646 0.319323 -0.0615358  
     length 4.0076  
     axis 0 0 0   XYZ
    dof ry rz
    limits (-20.0 10.0)
           (0.0 20.0)
  end
  begin
     id 18 
     name lhumerus
     direction 1 -4.48967e-011 -2.79996e-027   
     length 5.64147   
     axis 180 -30 -90   XYZ
    dof rx ry rz
    limits (-60.0 90.0)
           (-90.0 90.0)
           (-90.0 90.0)
  end
  begin
     id 19
     name lradius
     direction 1 -4.48976e-011 -9.5122e-027   
     length 2.86444   
     axis 180 -30 -90   XYZ
    dof rx
    limits (-10.0 170.0)
  end
  begin
     id 20
     name lwrist
     direction 1 -4.48983e-011 -1.24047e-026   
     length 1.43222   
     axis 9.05591e-015 90 90   XYZ
    dof ry
    limits (-180.0 0.0)
 end
  begin
     id 21 
     name lhand
     direction 1 -4.4892e-011 -2.48094e-026   
     length 0.722123   
     axis 1.58305e-014 90 90   XYZ
    dof rx rz
    limits (-90.0 90.0)
           (-45.0 45.0)
  end
  begin
     id 22 
     name lfingers
     direction 1 -4.48895e-011 -4.96187e-026   
     length 0.582194   
     axis 3.1661e-014 90 90   XYZ
    dof rx
    limits (0.0 90.0)
  end
  begin
     id 23
     name lthumb
     direction 0.707107 -6.34961e-011 0.707107   
     length 0.835918   
     axis -90 45 2.85299e-015   XYZ
    dof rx rz
    limits (-45.0 45.0)
           (-45.0 45.0)
  end
  begin
     id 24 
     name rclavicle
     direction -0.932635 0.324218 -0.15835   
     length 3.65819  
     axis 0 0 0   XYZ 
    dof ry rz
    limits (-10.0 20.0)
           (-20.0 0.0)
  end
  begin
     id 25 
     name rhumerus
     direction -1 -4.48965e-011 -4.02296e-027  
     length 5.44729   
     axis 180 30 90   XYZ
    dof rx ry rz
    limits (-90.0 60.0)
           (-90.0 90.0)
           (-90.0 90.0)
  end
  begin
     id 26 
     name rradius
     direction -1 -4.48957e-011 -8.81087e-027   
     length 3.08821   
     axis 180 30 90   XYZ
    dof rx
    limits (-10.0 170.0)
  end
  begin
     id 27 
     name rwrist
     direction -1 -4.49015e-011 -1.24047e-026   
     length 1.5441   
     axis 9.05591e-015 -90 -90   XYZ
    dof ry
    limits (-180.0 0.0)
  end
  begin
     id 28
     name rhand
     direction -1 -4.4891e-011 -2.48094e-026   
     length 0.821049   
     axis 1.58305e-014 -90 -90   XYZ
    dof rx rz
    limits (-90.0 90.0)
           (-45.0 45.0)
  end
  begin
     id 29
     name rfingers
     direction -1 -4.48985e-011 -4.96187e-026   
     length 0.661951   
     axis 3.1661e-014 -90 -90   XYZ
    dof rx
    limits (0.0 90.0)
  end
  begin
     id 30
     name rthumb
     direction -0.707107 -6.34906e-011 0.707107   
     length 0.950433   
     axis -90 -45 -2.85299e-015   XYZ
    dof rx rz
    limits (-45.0 45.0)
           (-45.0 45.0)
  end
:hierarchy
  begin
    root lhipjoint rhipjoint lowerback
    lhipjoint lfemur
    lfemur ltibia
    ltibia lfoot
    lfoot ltoes
    rhipjoint rfemur
    rfemur rtibia
    rtibia rfoot
    rfoot rtoes
    lowerback upperback
    upperback thorax
    thorax lowerneck lclavicle rclavicle
    lowerneck upperneck
    upperneck head
    lclavicle lhumerus
    lhumerus lradius
    lradius lwrist
    lwrist lhand lthumb
    lhand lfingers
    rclavicle rhumerus
    rhumerus rradius
    rradius rwrist
    rwrist rhand rthumb
    rhand rfingers
  end

#!OML:ASF F:\VICON\USERDATA\INSTALL\rory3\rory3.ASF
:FULLY-SPECIFIED
:DEGREES
1176
root 2.48752 17.8483 0.0501341 -199.067 78.8939 -207.566
lowerback 19.4669 -2.34168 10.7534
upperback 4.70213 -0.178261 3.83987
thorax -5.81821 0.00588039 -1.91717
lowerneck -2.26555 -7.13182 -4.56996
upperneck 4.69638 -9.65034 7.14873
head 2.54857 -4.70255 2.80799
rclavicle -1.59028e-014 -1.59028e-014
rhumerus -74.2846 32.9188 -85.2605
rradius 98.1915
rwrist -52.3946
rhand 30.2515 9.4644
rfingers 7.12502
rthumb 53.9329 -9.41889
lclavicle -1.59028e-014 -1.59028e-014
lhumerus -27.97 39.1628 14.5268
lradius 98.0681
lwrist 11.1232
lhand -4.95341 38.1077
lfingers 7.12502
lthumb 20.8382 67.0086
rfemur -14.0869 -1.21023 13.0719
rtibia 22.303
rfoot -23.4926 -12.701
rtoes -0.935872
lfemur -9.1404 -7.64806 -21.3869
ltibia 1.93815e-014
lfoot 0.350938 0.374009
ltoes 9.87637
1177
root 2.47989 17.8519 0.0648748 -198.658 78.9294 -207.267
lowerback 19.6021 -2.27534 10.5432
upperback 4.71725 -0.125174 3.75795
thorax -5.86798 0.0304061 -1.90091
lowerneck -2.2608 -7.13227 -4.55864
upperneck 4.77136 -9.64957 7.04393
head 2.56503 -4.70363 2.77007
rclavicle 3.18055e-014 5.725e-014
rhumerus -74.2732 32.9154 -85.3076
rradius 98.0809
rwrist -52.3857
rhand 30.249 9.3794
rfingers 7.12502
rthumb 53.9307 -9.50537
lclavicle 3.18055e-014 5.725e-014
lhumerus -27.8124 39.2181 14.5272
lradius 98.0967
lwrist 11.3687
lhand -4.66068 38.6318
lfingers 7.12502
lthumb 21.1194 67.5016
rfemur -14.2781 -1.23705 13.1872
rtibia 22.3302
rfoot -23.4212 -12.6861
rtoes -0.713826
lfemur -9.30311 -7.62452 -21.2492
ltibia 2.3556e-014
lfoot 0.40179 0.389179
ltoes 9.89057
1178
root 2.47199 17.8535 0.0794285 -197.714 78.9161 -206.46
lowerback 19.637 -2.2024 10.5006
upperback 4.70547 -0.0429601 3.68367
thorax -5.89023 0.0670837 -1.97747
lowerneck -2.0329 -7.1806 -4.64336
upperneck 4.68221 -9.71172 7.02328
head 2.5014 -4.74246 2.78431
rclavicle -1.59028e-015 -9.70069e-014
rhumerus -74.3544 32.7879 -85.3534
rradius 97.9403
rwrist -52.3588
rhand 30.2473 9.34045
rfingers 7.12502
rthumb 53.9292 -9.54535
lclavicle -1.59028e-015 -9.70069e-014
lhumerus -27.3927 39.1549 14.8103
lradius 97.9547
lwrist 11.4175
lhand -4.43282 38.7659
lfingers 7.12502
lthumb 21.3383 67.611
rfemur -14.4593 -1.18988 13.3874
rtibia 22.3396
rfoot -23.4483 -12.7532
rtoes -0.421938
lfemur -9.51773 -7.67553 -21.0211
ltibia 1.41137e-014
lfoot 0.397743 0.434118
ltoes 10.1554
1179
root 2.46433 17.8545 0.0941025 -197.316 78.8511 -206.114
lowerback 19.7995 -2.17108 10.3132
upperback 4.70239 -0.0286561 3.57682
thorax -5.97853 0.0703194 -1.99099
lowerneck -1.81199 -7.17897 -4.71854
upperneck 4.59413 -9.70937 7.03529
head 2.43696 -4.74798 2.81067
rclavicle -1.27222e-014 -6.36111e-015
rhumerus -74.4752 32.7297 -85.5278
rradius 97.8036
rwrist -52.2657
rhand 29.9895 9.42947
rfingers 7.12502
rthumb 53.6976 -9.611
lclavicle -1.27222e-014 -6.36111e-015
lhumerus -27.0923 39.0759 14.8981
lradius 97.938
lwrist 11.3634
lhand -4.31707 38.7922
lfingers 7.12502
lthumb 21.4495 67.6247
rfemur -14.5265 -1.23611 13.4741
rtibia 22.3339
rfoot -23.4992 -12.7438
rtoes -0.499882
lfemur -9.62685 -7.74875 -20.9205
ltibia -2.98177e-016
lfoot 0.417651 0.472162
ltoes 10.1737
1180
root 2.45419 17.853 0.109363 -196.359 78.7919 -205.194
lowerback 19.9853 -2.18136 10.2344
upperback 4.71262 -0.0395818 3.48993
thorax -6.0669 0.0622541 -2.03706
lowerneck -1.77871 -7.16486 -4.70467
upperneck 4.63126 -9.68986 6.95914
head 2.43602 -4.74001 2.78419
rclavicle 0 -1.59028e-015
rhumerus -74.4889 32.6637 -85.655
rradius 97.6726
rwrist -52.2133
rhand 29.98 9.41682
rfingers 7.12502
rthumb 53.689 -9.62932
lclavicle 0 -1.59028e-015
lhumerus -26.8878 39.0194 14.9325
lradius 98.0567
lwrist 11.3957
lhand -4.30585 38.961
lfingers 7.12502
lthumb 21.4602 67.7923
rfemur -14.5869 -1.40413 13.7084
rtibia 22.2679
rfoot -23.4517 -12.7838
rtoes -1.1532
lfemur -9.74989 -7.84344 -20.6893
ltibia -3.15074e-014
lfoot 0.472027 0.503364
ltoes 9.93042
1181
root 2.44582 17.8529 0.12492 -195.577 78.7524 -204.489
lowerback 20.1029 -2.16859 10.1182
upperback 4.73225 -0.0420034 3.38665
thorax -6.10793 0.060161 -2.08292
lowerneck -1.82028 -7.19682 -4.68159
upperneck 4.71171 -9.73219 6.88225
head 2.46666 -4.76069 2.74999
rclavicle 1.19271e-014 3.18055e-015
rhumerus -74.4102 32.5804 -85.714
rradius 97.508
rwrist -52.2649
rhand 30.1572 9.40752
rfingers 7.12502
rthumb 53.8482 -9.53263
lclavicle 1.19271e-014 3.18055e-015
lhumerus -26.6648 39.0102 14.9567
lradius 98.0553
lwrist 11.4826
lhand -4.35994 38.8252
lfingers 7.12502
lthumb 21.4083 67.6624
rfemur -14.6702 -1.48759 13.9059
rtibia 22.1482
rfoot -23.323 -12.9233
rtoes -1.58914
lfemur -9.90684 -7.90572 -20.487
ltibia -1.55052e-014
lfoot 0.548109 0.543549
ltoes 9.60669
1182
root 2.43932 17.8506 0.140588 -194.689 78.7645 -203.666
lowerback 20.1879 -2.16805 9.99359
upperback 4.78126 -0.0653247 3.3041
thorax -6.1019 0.0519306 -2.09692
lowerneck -1.84363 -7.19293 -4.67012
upperneck 4.71226 -9.72331 6.7886
head 2.46346 -4.75845 2.71599
rclavicle 1.90833e-014 -4.77083e-015
rhumerus -74.3219 32.6721 -85.8418
rradius 97.3173
rwrist -52.2594
rhand 30.0609 9.51839
rfingers 7.12502
rthumb 53.7617 -9.47947
lclavicle 1.90833e-014 -4.77083e-015
lhumerus -26.5384 39.1076 14.9079
lradius 98.0003
lwrist 11.5041
lhand -4.47647 38.627
lfingers 7.12502
lthumb 21.2964 67.477
rfemur -14.7145 -1.47991 14.1496
rtibia 21.997
rfoot -23.1885 -13.0392
rtoes -1.77317
lfemur -10.0346 -7.91999 -20.2412
ltibia 3.97569e-015
lfoot 0.587955 0.540458
ltoes 9.59468
1183
root 2.43236 17.8489 0.156692 -193.403 78.7574 -202.397
lowerback 20.2911 -2.16862 9.92385
upperback 4.83652 -0.0706134 3.26181
thorax -6.09664 0.0533643 -2.10232
lowerneck -1.8277 -7.16632 -4.72447
upperneck 4.72739 -9.68548 6.74568
head 2.46368 -4.74216 2.71334
rclavicle -2.8625e-014 -3.97569e-014
rhumerus -74.23 32.6752 -85.8807
rradius 97.1605
rwrist -52.2033
rhand 29.937 9.5828
rfingers 7.12502
rthumb 53.6503 -9.48893
lclavicle -2.8625e-014 -3.97569e-014
lhumerus -26.3696 39.1654 14.9496
lradius 98.0776
lwrist 11.3895
lhand -4.57949 38.8994
lfingers 7.12502
lthumb 21.1974 67.7604
rfemur -14.7167 -1.49921 14.4738
rtibia 21.8724
rfoot -23.1525 -13.0907
rtoes -1.18833
lfemur -10.1234 -7.96834 -19.9122
ltibia 1.74931e-014
lfoot 0.609982 0.544022
ltoes 9.57983
1184
root 2.42421 17.85 0.172316 -192.498 78.7343 -201.486
lowerback 20.474 -2.17572 9.76572
upperback 4.85991 -0.091576 3.21739
thorax -6.17032 0.0435423 -2.05561
lowerneck -1.79632 -7.10891 -4.87261
upperneck 4.77445 -9.60876 6.78289
head 2.48042 -4.70612 2.75635
rclavicle -7.95139e-015 -1.11319e-014
rhumerus -74.2047 32.7193 -85.9388
rradius 97.0344
rwrist -52.2337
rhand 29.7262 9.55714
rfingers 7.12502
rthumb 53.4607 -9.63911
lclavicle -7.95139e-015 -1.11319e-014
lhumerus -26.2978 39.1345 14.9023
lradius 98.1301
lwrist 11.3936
lhand -4.66957 39.0584
lfingers 7.12502
lthumb 21.1109 67.9291
rfemur -14.7041 -1.55382 14.7166
rtibia 21.7638
rfoot -23.0282 -13.2534
rtoes -1.04697
lfemur -10.1852 -8.01395 -19.666
ltibia -2.98177e-014
lfoot 0.629356 0.565381
ltoes 9.74735
1185
root 2.41883 17.8501 0.184846 -192.396 78.729 -201.397
lowerback 20.5631 -2.14166 9.47499
upperback 4.91994 -0.108724 3.12685
thorax -6.15406 0.0405355 -1.98691
lowerneck -1.70131 -7.07018 -4.85613
upperneck 4.68239 -9.55031 6.63584
head 2.41765 -4.68368 2.71076
rclavicle 1.43125e-014 -1.11319e-014
rhumerus -74.1597 32.8001 -85.9963
rradius 96.9086
rwrist -52.189
rhand 29.6656 9.61449
rfingers 7.12502
rthumb 53.406 -9.61735
lclavicle 1.43125e-014 -1.11319e-014
lhumerus -26.2093 39.2112 14.8416
lradius 98.115
lwrist 11.4249
lhand -4.65243 38.7993
lfingers 7.12502
lthumb 21.1273 67.6682
rfemur -14.7107 -1.68273 14.781
rtibia 21.6779
rfoot -22.8758 -13.2104
rtoes -1.18338
lfemur -10.2282 -8.0151 -19.6131
ltibia 2.98177e-015
lfoot 0.639671 0.609773
ltoes 9.34614
1186
root 2.41324 17.8506 0.196417 -191.934 78.7405 -200.993
lowerback 20.6262 -2.09861 9.329
upperback 4.9637 -0.0901923 3.0053
thorax -6.13763 0.0517102 -2.04179
lowerneck -1.71576 -7.07025 -4.78006
upperneck 4.65824 -9.54475 6.47697
head 2.39666 -4.68375 2.64388
rclavicle 7.15625e-015 -5.88403e-014
rhumerus -74.0852 32.7064 -86.0712
rradius 96.7589
rwrist -52.1359
rhand 29.6729 9.48403
rfingers 7.12502
rthumb 53.4126 -9.74352
lclavicle 7.15625e-015 -5.88403e-014
lhumerus -25.9446 39.2479 14.9254
lradius 98.0783
lwrist 11.4212
lhand -4.77157 38.5596
lfingers 7.12502
lthumb 21.0129 67.4413
rfemur -14.8 -1.73182 14.8992
rtibia 21.6368
rfoot -22.755 -13.1851
rtoes -1.24291
lfemur -10.3308 -8.00944 -19.4762
ltibia -1.55052e-014
lfoot 0.637219 0.623415
ltoes 9.20926
1187
root 2.40772 17.8509 0.212115 -190.944 78.752 -200.033
lowerback 20.7476 -2.06272 9.23883
upperback 4.9836 -0.0553548 2.92628
thorax -6.1762 0.0681819 -2.08532
lowerneck -1.67324 -7.07381 -4.82865
upperneck 4.60973 -9.54933 6.49994
head 2.37753 -4.68815 2.66204
rclavicle -3.18055e-015 -4.77083e-014
rhumerus -74.0751 32.5724 -86.139
rradius 96.6568
rwrist -52.0119
rhand 29.6024 9.44102
rfingers 7.12502
rthumb 53.3492 -9.82773
lclavicle -3.18055e-015 -4.77083e-014
lhumerus -25.652 39.2596 15.0206
lradius 98.0828
lwrist 11.3845
lhand -4.75518 38.5964
lfingers 7.12502
lthumb 21.0286 67.4763
rfemur -14.8797 -1.70799 15.1475
rtibia 21.6115
rfoot -22.7101 -13.2692
rtoes -1.41216
lfemur -10.4192 -8.01804 -19.2089
ltibia -2.18663e-014
lfoot 0.696925 0.62632
ltoes 9.17988
